HIERARCHY
ROOT Hips
{
	OFFSET 0.00000 0.00000 0.00000
	CHANNELS 6 Xposition Yposition Zposition Zrotation Yrotation Xrotation 
	JOINT LHipJoint
	{
		OFFSET 0 0 0
		CHANNELS 3 Zrotation Yrotation Xrotation
		JOINT LeftUpLeg
		{
			OFFSET 1.58161 -1.81893 0.78828
			CHANNELS 3 Zrotation Yrotation Xrotation
			JOINT LeftLeg
			{
				OFFSET 2.53374 -6.96141 0.00000
				CHANNELS 3 Zrotation Yrotation Xrotation
				JOINT LeftFoot
				{
					OFFSET 2.63509 -7.23986 0.00000
					CHANNELS 3 Zrotation Yrotation Xrotation
					JOINT LeftToeBase
					{
						OFFSET 0.14115 -0.38781 2.05350
						CHANNELS 3 Zrotation Yrotation Xrotation
						End Site
						{
							OFFSET 0.00000 -0.00000 1.05543
						}
					}
				}
			}
		}
	}
	JOINT RHipJoint
	{
		OFFSET 0 0 0
		CHANNELS 3 Zrotation Yrotation Xrotation
		JOINT RightUpLeg
		{
			OFFSET -1.11138 -1.81893 0.78828
			CHANNELS 3 Zrotation Yrotation Xrotation
			JOINT RightLeg
			{
				OFFSET -2.58392 -7.09926 0.00000
				CHANNELS 3 Zrotation Yrotation Xrotation
				JOINT RightFoot
				{
					OFFSET -2.66423 -7.31992 0.00000
					CHANNELS 3 Zrotation Yrotation Xrotation
					JOINT RightToeBase
					{
						OFFSET -0.18831 -0.51739 2.12114
						CHANNELS 3 Zrotation Yrotation Xrotation
						End Site
						{
							OFFSET -0.00000 -0.00000 1.09845
						}
					}
				}
			}
		}
	}
	JOINT LowerBack
	{
		OFFSET 0 0 0
		CHANNELS 3 Zrotation Yrotation Xrotation
		JOINT Spine
		{
			OFFSET -0.01511 1.97958 -0.08829
			CHANNELS 3 Zrotation Yrotation Xrotation
			JOINT Spine1
			{
				OFFSET 0.08344 1.97334 -0.04330
				CHANNELS 3 Zrotation Yrotation Xrotation
				JOINT Neck
				{
					OFFSET 0 0 0
					CHANNELS 3 Zrotation Yrotation Xrotation
					JOINT Neck1
					{
						OFFSET 0.00559 1.76246 0.31246
						CHANNELS 3 Zrotation Yrotation Xrotation
						JOINT Head
						{
							OFFSET -0.07011 1.80354 -0.30524
							CHANNELS 3 Zrotation Yrotation Xrotation
							End Site
							{
								OFFSET -0.02385 1.83547 -0.13906
							}
						}
					}
				}
				JOINT LeftShoulder
				{
					OFFSET 0 0 0
					CHANNELS 3 Zrotation Yrotation Xrotation
					JOINT LeftArm
					{
						OFFSET 3.20667 1.30156 -0.60240
						CHANNELS 3 Zrotation Yrotation Xrotation
						JOINT LeftForeArm
						{
							OFFSET 4.95663 -0.00000 0.00000
							CHANNELS 3 Zrotation Yrotation Xrotation
							JOINT LeftHand
							{
								OFFSET 3.38177 -0.00000 0.00000
								CHANNELS 3 Zrotation Yrotation Xrotation
								JOINT LeftFingerBase
								{
									OFFSET 0 0 0
									CHANNELS 3 Zrotation Yrotation Xrotation
									JOINT LeftHandIndex1
									{
										OFFSET 0.66291 -0.00000 0.00000
										CHANNELS 3 Zrotation Yrotation Xrotation
										End Site
										{
											OFFSET 0.53445 -0.00000 0.00000
										}
									}
								}
								JOINT LThumb
								{
									OFFSET 0 0 0
									CHANNELS 3 Zrotation Yrotation Xrotation
									End Site
									{
										OFFSET 0.54261 -0.00000 0.54261
									}
								}
							}
						}
					}
				}
				JOINT RightShoulder
				{
					OFFSET 0 0 0
					CHANNELS 3 Zrotation Yrotation Xrotation
					JOINT RightArm
					{
						OFFSET -3.06877 1.34672 -0.60964
						CHANNELS 3 Zrotation Yrotation Xrotation
						JOINT RightForeArm
						{
							OFFSET -5.08365 -0.00000 0.00000
							CHANNELS 3 Zrotation Yrotation Xrotation
							JOINT RightHand
							{
								OFFSET -3.35984 -0.00000 0.00000
								CHANNELS 3 Zrotation Yrotation Xrotation
								JOINT RightFingerBase
								{
									OFFSET 0 0 0
									CHANNELS 3 Zrotation Yrotation Xrotation
									JOINT RightHandIndex1
									{
										OFFSET -0.82076 -0.00000 0.00000
										CHANNELS 3 Zrotation Yrotation Xrotation
										End Site
										{
											OFFSET -0.66172 -0.00000 0.00000
										}
									}
								}
								JOINT RThumb
								{
									OFFSET 0 0 0
									CHANNELS 3 Zrotation Yrotation Xrotation
									End Site
									{
										OFFSET -0.67182 -0.00000 0.67182
									}
								}
							}
						}
					}
				}
			}
		}
	}
}
MOTION
Frames: 14
Frame Time: .0083333
-7.075 17.6369 2.0665 0 0 0 0 0 0 -21 0 0 0 0 0 0 0 0 0 0 0 0 0 0 21 0 0 0 0 0 0 0 0 0 0 0 0 0 0 0 0 0 0 0 0 0 0 -16 0 0 21 0 0 11 0 0 0 -8 0 0 0 0 0 0 0 0 0 0 0 0 0 0 0 0 0 0 0 0 8 0 0 0 0 0 0 0 0 0 0 0 0 0 0 0 0 0
-7.0750 17.6369 2.0665 -64.9802 87.4104 -49.0015 0.0000 0.0000 0.0000 -6.1105 -1.6626 -29.9706 2.7834 10.3360 30.0716 0.4438 -6.5255 -12.0260 1.6898 -8.1877 -23.2857 0.0000 0.0000 0.0000 7.3554 7.7752 -30.3217 -2.9479 -10.6102 30.9761 -0.3327 -3.3947 -12.6827 -0.2892 3.4583 -9.5575 -2.4314 1.5766 1.5382 3.8495 2.1199 1.8248 5.3215 1.0382 0.7811 1.4974 -1.9780 -13.7594 -3.9032 0.4390 41.5930 -1.7822 0.5566 17.6942 -0.0000 -0.0000 0.0000 -104.0185 -20.4759 78.0899 13.5995 -22.1593 -2.6752 -0.0000 0.0000 -44.2728 28.4488 63.4776 25.8631 -7.1250 0.0000 -0.0000 170.2352 6.5725 8.7136 -0.0000 -0.0000 0.0000 103.3812 23.6468 35.9258 -9.6034 16.1169 -1.3628 0.0000 -0.0000 -32.5051 -15.3270 -8.5449 2.3320 7.1250 -0.0000 -0.0000 9.9646 -38.6534 1.5762
-7.0754 17.6365 2.0638 -64.9311 87.4338 -48.9820 0.0000 0.0000 0.0000 -6.1539 -1.6414 -29.9368 2.7984 10.3613 30.1549 0.4227 -6.6042 -11.7719 1.4089 -7.5078 -21.2286 0.0000 0.0000 0.0000 7.3209 7.7501 -30.3047 -2.9514 -10.6159 30.9953 -0.3382 -3.3227 -12.7188 -0.2705 3.3456 -9.2426 -2.4539 1.5675 1.5852 3.8485 2.1071 1.8291 5.3322 1.0319 0.7599 1.4217 -1.9908 -13.7359 -3.8740 0.4261 41.5526 -1.7562 0.5418 17.6642 0.0000 0.0000 0.0000 -104.0374 -20.4737 78.0187 13.5977 -22.1567 -2.6745 -0.0000 0.0000 -44.3249 28.5403 63.2941 25.9128 -7.1250 0.0000 -0.0000 170.3168 6.4197 8.6676 0.0000 0.0000 0.0000 103.3754 23.6236 36.1254 -9.6084 16.1247 -1.3642 0.0000 -0.0000 -32.5780 -15.5648 -8.4862 2.3538 7.1250 -0.0000 -0.0000 9.7522 -38.6109 1.5522
-7.0757 17.6361 2.0610 -64.1657 87.5036 -48.2296 0.0000 0.0000 0.0000 -6.2387 -1.6638 -29.9389 2.8075 10.3767 30.2053 0.4230 -6.6832 -11.7889 1.3808 -7.4357 -21.0127 0.0000 0.0000 0.0000 7.2362 7.6712 -30.3112 -2.9515 -10.6161 30.9959 -0.3417 -3.2574 -12.7287 -0.2704 3.3452 -9.2415 -2.5294 1.5534 1.6011 3.8251 2.0867 1.8380 5.3507 1.0205 0.7607 1.3234 -2.0087 -13.7470 -3.7919 0.3944 41.5544 -1.7063 0.5238 17.6672 -0.0000 -0.0000 0.0000 -104.0282 -20.4675 77.9330 13.5768 -22.1265 -2.6666 -0.0000 0.0000 -44.1931 28.7910 63.3761 26.1640 -7.1250 0.0000 -0.0000 170.3586 6.5413 8.6060 -0.0000 -0.0000 0.0000 103.4213 23.6513 36.1267 -9.5797 16.0795 -1.3562 0.0000 -0.0000 -32.6166 -15.6759 -8.3995 2.3474 7.1250 -0.0000 -0.0000 9.6426 -38.5303 1.5536
-7.0761 17.6368 2.0593 -65.5178 87.4181 -49.5516 0.0000 0.0000 0.0000 -6.1203 -1.6318 -30.0137 2.8165 10.3920 30.2556 0.4207 -6.7378 -11.7696 1.4149 -7.5229 -21.2742 0.0000 0.0000 0.0000 7.3743 7.6435 -30.3693 -2.9520 -10.6169 30.9985 -0.3410 -3.2845 -12.7357 -0.2695 3.3393 -9.2248 -2.4358 1.5434 1.5709 3.8601 2.0753 1.8404 5.3352 1.0156 0.7832 1.2503 -2.0035 -13.7641 -3.7473 0.4084 41.5640 -1.6704 0.5236 17.6786 0.0000 -0.0000 0.0000 -104.0699 -20.4987 77.8250 13.5347 -22.0657 -2.6508 -0.0000 0.0000 -44.0290 28.7665 63.5048 26.1664 -7.1250 0.0000 -0.0000 170.3115 6.6556 8.6277 0.0000 -0.0000 0.0000 103.4269 23.6417 36.3007 -9.5933 16.1009 -1.3600 0.0000 -0.0000 -32.8361 -15.8253 -8.3104 2.3460 7.1250 -0.0000 -0.0000 9.5003 -38.4499 1.5492
-7.0763 17.6369 2.0575 -67.9274 87.2975 -51.9504 0.0000 0.0000 0.0000 -5.9463 -1.6338 -30.0670 2.8230 10.4029 30.2915 0.4205 -6.7073 -11.7609 1.4873 -7.7047 -21.8208 0.0000 0.0000 0.0000 7.5864 7.5922 -30.4068 -2.9515 -10.6162 30.9961 -0.3476 -3.2358 -12.8038 -0.1836 2.7599 -7.6111 -2.2788 1.5340 1.5551 3.9056 2.0658 1.8461 5.2942 1.0125 0.8027 1.2425 -1.9792 -13.7615 -3.7248 0.4386 41.5569 -1.6529 0.5372 17.6752 0.0000 -0.0000 0.0000 -104.0693 -20.5341 77.8368 13.5102 -22.0302 -2.6416 -0.0000 0.0000 -44.0832 28.9427 63.5688 26.3445 -7.1250 0.0000 -0.0000 170.3384 6.7470 8.5856 0.0000 -0.0000 0.0000 103.3466 23.5653 36.7549 -9.6929 16.2578 -1.3877 0.0000 -0.0000 -33.3979 -15.9536 -8.3849 2.3870 7.1250 -0.0000 -0.0000 9.4041 -38.5352 1.5132
-7.0764 17.6348 2.0561 -68.7922 87.2567 -52.8043 0.0000 0.0000 0.0000 -5.8993 -1.6097 -30.1143 2.8290 10.4130 30.3247 0.4195 -6.7340 -11.7537 1.4481 -7.6070 -21.5267 0.0000 0.0000 0.0000 7.6645 7.5403 -30.4279 -2.9491 -10.6123 30.9831 -0.3512 -3.1888 -12.8282 -0.1297 2.3217 -6.3956 -2.2193 1.5442 1.5445 3.9092 2.0801 1.8467 5.2641 1.0203 0.8095 1.2297 -1.9666 -13.7704 -3.6715 0.4409 41.5618 -1.6256 0.5435 17.6804 0.0000 0.0000 0.0000 -104.0199 -20.5511 78.0287 13.5220 -22.0472 -2.6460 -0.0000 0.0000 -44.2581 29.1763 63.4670 26.5436 -7.1250 0.0000 -0.0000 170.4328 6.6965 8.5088 0.0000 0.0000 0.0000 103.3543 23.5835 36.5982 -9.6776 16.2337 -1.3834 0.0000 -0.0000 -33.3955 -15.9183 -8.3609 2.3747 7.1250 -0.0000 -0.0000 9.4301 -38.5081 1.5239
-7.0769 17.6337 2.0549 -68.8383 87.2189 -52.8260 0.0000 0.0000 0.0000 -5.8678 -1.5707 -30.1600 2.8343 10.4218 30.3537 0.4198 -6.7682 -11.7627 1.3987 -7.4815 -21.1501 0.0000 0.0000 0.0000 7.6861 7.6101 -30.4235 -2.9457 -10.6066 30.9641 -0.3463 -3.2680 -12.8054 -0.1308 2.3311 -6.4215 -2.1937 1.5757 1.5633 3.9093 2.1229 1.8147 5.2477 1.0435 0.7622 1.1995 -1.9631 -13.7522 -3.6314 0.4474 41.5852 -1.6002 0.5491 17.6897 0.0000 0.0000 0.0000 -103.9928 -20.5179 78.2531 13.5447 -22.0801 -2.6546 -0.0000 0.0000 -44.2607 29.3874 63.4563 26.7398 -7.1250 0.0000 -0.0000 170.4926 6.7264 8.4485 0.0000 0.0000 0.0000 103.4755 23.6795 35.7270 -9.5246 15.9925 -1.3410 0.0000 -0.0000 -32.6168 -15.7701 -8.2136 2.3104 7.1250 -0.0000 -0.0000 9.5306 -38.3471 1.5786
-7.0770 17.6350 2.0540 -68.9001 87.2044 -52.8886 0.0000 0.0000 0.0000 -5.8471 -1.5793 -30.1565 2.8383 10.4286 30.3761 0.4229 -6.7665 -11.8021 1.3909 -7.4615 -21.0901 0.0000 0.0000 0.0000 7.6862 7.6885 -30.3813 -2.9419 -10.6003 30.9435 -0.3448 -3.3397 -12.8317 -0.1314 2.3363 -6.4359 -2.2532 1.5787 1.6322 3.9451 2.1272 1.7677 5.3158 1.0478 0.6714 1.1900 -1.9371 -13.6834 -3.6729 0.5152 41.5824 -1.6041 0.5715 17.6732 -0.0000 0.0000 0.0000 -104.0318 -20.4535 78.1890 13.5163 -22.0390 -2.6439 -0.0000 0.0000 -44.0223 29.1493 63.4135 26.5076 -7.1250 0.0000 -0.0000 170.4430 6.6423 8.5096 -0.0000 0.0000 0.0000 103.5459 23.6706 35.1940 -9.4463 15.8688 -1.3195 0.0000 -0.0000 -32.0842 -15.6945 -8.1545 2.2824 7.1250 -0.0000 -0.0000 9.5846 -38.2814 1.6033
-7.0773 17.6353 2.0531 -69.5697 87.1479 -53.5622 0.0000 0.0000 0.0000 -5.7728 -1.5772 -30.1585 2.8412 10.4334 30.3919 0.4265 -6.7647 -11.8471 1.3953 -7.4728 -21.1240 0.0000 0.0000 0.0000 7.7584 7.7097 -30.3515 -2.9359 -10.5905 30.9109 -0.3462 -3.3248 -12.8428 -0.1245 2.2742 -6.2640 -2.2747 1.5591 1.6693 4.0118 2.1023 1.7566 5.3971 1.0363 0.6388 1.1793 -1.9144 -13.6830 -3.7461 0.5843 41.5758 -1.6234 0.5877 17.6731 0.0000 -0.0000 0.0000 -104.1090 -20.4522 77.9700 13.4695 -21.9713 -2.6263 -0.0000 0.0000 -43.7699 28.7423 63.3815 26.1193 -7.1250 0.0000 -0.0000 170.3440 6.5374 8.6203 0.0000 -0.0000 0.0000 103.5526 23.6509 35.0957 -9.4406 15.8598 -1.3179 0.0000 -0.0000 -31.8970 -15.5814 -8.2000 2.2776 7.1250 -0.0000 -0.0000 9.6883 -38.3200 1.6118
-7.0773 17.6353 2.0512 -69.9641 87.0793 -53.9586 0.0000 0.0000 0.0000 -5.7063 -1.5465 -30.1727 2.8432 10.4367 30.4029 0.4303 -6.7586 -11.8940 1.4366 -7.5779 -21.4392 0.0000 0.0000 0.0000 7.8372 7.7277 -30.3249 -2.9275 -10.5768 30.8655 -0.3443 -3.3272 -12.8156 -0.1215 2.2468 -6.1882 -2.2325 1.5598 1.6622 4.0461 2.1044 1.7722 5.4094 1.0374 0.6589 1.1717 -1.9174 -13.7157 -3.7654 0.5877 41.5754 -1.6309 0.5842 17.6819 0.0000 0.0000 0.0000 -104.1146 -20.4874 77.9835 13.4790 -21.9850 -2.6299 -0.0000 0.0000 -43.8115 28.9894 63.4658 26.3679 -7.1250 0.0000 -0.0000 170.3837 6.6607 8.5605 0.0000 0.0000 0.0000 103.5553 23.6760 35.0530 -9.4402 15.8592 -1.3178 0.0000 -0.0000 -31.7647 -15.4850 -8.2430 2.2746 7.1250 -0.0000 -0.0000 9.7773 -38.3570 1.6179
-7.0762 17.6380 2.0499 -69.0153 87.1059 -53.0099 0.0000 0.0000 0.0000 -5.7669 -1.5239 -30.1713 2.8450 10.4398 30.4130 0.4298 -6.8062 -11.8961 1.4095 -7.5092 -21.2329 0.0000 0.0000 0.0000 7.7786 7.7688 -30.2856 -2.9186 -10.5621 30.8167 -0.3400 -3.4291 -12.8186 -0.1420 2.4290 -6.6928 -2.3304 1.5725 1.5932 4.0638 2.1203 1.8148 5.4868 1.0422 0.7358 1.1859 -1.9064 -13.6956 -3.8090 0.6079 41.5048 -1.6485 0.5864 17.6365 -0.0000 0.0000 0.0000 -104.1148 -20.5563 78.0909 13.5009 -22.0167 -2.6381 -0.0000 0.0000 -43.9675 29.1091 63.4298 26.4731 -7.1250 0.0000 -0.0000 170.4267 6.6498 8.5231 -0.0000 0.0000 0.0000 103.5301 23.7384 35.0370 -9.4458 15.8680 -1.3194 0.0000 -0.0000 -31.7168 -15.5350 -8.2952 2.2966 7.1250 -0.0000 -0.0000 9.7440 -38.4138 1.5986
-7.0753 17.6404 2.0477 -69.1664 87.1357 -53.1629 0.0000 0.0000 0.0000 -5.7940 -1.5302 -30.1841 2.8475 10.4439 30.4267 0.4253 -6.9087 -11.8577 1.3391 -7.3271 -20.6881 0.0000 0.0000 0.0000 7.7387 7.7851 -30.2349 -2.9101 -10.5480 30.7702 -0.3377 -3.5197 -12.8453 -0.1695 2.6520 -7.3114 -2.3952 1.5613 1.5001 4.1031 2.1051 1.8856 5.5699 1.0303 0.8592 1.1685 -1.8739 -13.7239 -3.8542 0.6685 41.4269 -1.6543 0.5981 17.6020 -0.0000 0.0000 0.0000 -104.1481 -20.6785 78.1786 13.5146 -22.0366 -2.6433 -0.0000 0.0000 -44.0119 29.0497 63.4704 26.4255 -7.1250 0.0000 -0.0000 170.3981 6.6761 8.5444 -0.0000 0.0000 0.0000 103.5127 23.8588 34.9689 -9.4386 15.8567 -1.3174 0.0000 -0.0000 -31.5966 -15.4371 -8.3582 2.2986 7.1250 -0.0000 -0.0000 9.8381 -38.4710 1.6004
-7.0754 17.6387 2.0432 -71.6368 87.0357 -55.6517 0.0000 0.0000 0.0000 -5.6627 -1.5014 -30.2143 2.8503 10.4487 30.4425 0.4286 -6.8831 -11.8938 1.4462 -7.6022 -21.5121 0.0000 0.0000 0.0000 7.8880 7.7590 -30.1769 -2.9028 -10.5360 30.7304 -0.3361 -3.5141 -12.8179 -0.1785 2.7213 -7.5037 -2.2451 1.5184 1.4948 4.1851 2.0510 1.9163 5.5719 1.0043 0.9021 1.0578 -1.8413 -13.7812 -3.8242 0.7432 41.4439 -1.6079 0.6140 17.6315 -0.0000 -0.0000 0.0000 -104.1946 -20.7453 78.2257 13.5184 -22.0420 -2.6447 -0.0000 0.0000 -43.9423 29.3167 63.6157 26.7052 -7.1250 0.0000 -0.0000 170.4225 6.8595 8.4875 -0.0000 -0.0000 0.0000 103.4736 23.8791 35.0624 -9.4589 15.8888 -1.3230 0.0000 -0.0000 -31.6230 -15.2617 -8.4113 2.2856 7.1250 -0.0000 -0.0000 9.9963 -38.5126 1.6164
